<?xml version="1.0" encoding="UTF-8"?>
<svg id="Capa_1" data-name="Capa 1" xmlns="http://www.w3.org/2000/svg" viewBox="0 0 842.06 415.17">
  <defs>
    <style>
      .cls-1 {
        fill: #1b96c6;
      }

      .cls-2 {
        fill: none;
        stroke: #1b96c6;
        stroke-miterlimit: 10;
        stroke-width: 28px;
      }
    </style>
  </defs>
  <path class="cls-1" d="m15.35,261.2h311.49c8.47,0,15.35,6.88,15.35,15.35v5.94c0,5.19-4.22,9.41-9.41,9.41H15.35C6.88,291.89,0,285.01,0,276.54H0C0,268.07,6.88,261.2,15.35,261.2Z"/>
  <path class="cls-1" d="m272.46,261.2c1.52-4.93,205.96-206.34,205.96-206.34l321.53,233.49-128.59-.51-192.76-216.51-136.55,212.64-69.6-22.79Z"/>
  <path class="cls-1" d="m671.37,287.85h39.41v123.39c0,2.17-1.76,3.93-3.93,3.93h-25.25c-5.65,0-10.23-4.58-10.23-10.23v-117.09h0Z"/>
  <path class="cls-2" d="m703.71,401.03c119.79-57.01,156.92-204.63,94.36-300.13-62.04-94.7-210.37-120.22-310.74-35.24"/>
  <path class="cls-1" d="m730.99,241.11c-40.42-25.52-80.84-51.03-121.26-76.55-2.47-8.78-1.31-11.76.16-12.89,1.89-1.45,4.37.1,8.05-1.51,3.12-1.36,4.29-3.76,5.68-5.43,6.99-8.39,22.45-1.99,25.39-7.71,1.87-3.65-2.3-10.39-7.33-13.52-4.76-2.96-9.7-1.13-17.75.13-4.33.68-13.64,4.55-29.49,7.96-7.41,1.6-8.34,3.87-11.87,4.04-9.99.47-19.98-6.37-19.26-9.73,1.15-5.4,30.27-2.76,30.51-5.87.11-1.53-7.04-.86-11.75-6.06-7.11-7.87-1.45-21.25-7.77-24.63-2.84-1.52-5.76.29-7.01-1.71-1.36-2.17.55-6.3,3.28-8.46,2.99-2.36,7.86-3.07,9.74-1.05,1.7,1.83-.45,4.39.62,9.52.73,3.5,2.47,5.85,3.6,7.39.95,1.29,5.18,7.02,12.32,8.53,12.74,2.69,22.17-10.73,23.12-12.13,1.39-2.04,3.51-5.16,2.53-7.96-.78-2.23-2.98-2.69-4.17-6.19-.27-.78-.47-1.7-1.26-2.78-.96-1.31-1.88-1.62-2.56-2.22-2.52-2.22-1.23-7.73-.79-9.46.36-1.4,1.42-5.36,4.93-8.91,6.99-7.06,20-8.75,24.25-3.98,2.03,2.28.52,4.3,3.22,7.77,3.15,4.04,7.77,4.56,7.58,6.25-.19,1.7-4.88,1.61-5.31,3.41-.5,2.12,5.51,4.48,10.31,7.71,10.1,6.78,19.38,20.4,23.04,32.65.87,2.92,1.81,7.05,5.12,8.53,4.01,1.79,7.22-2.21,10.42-.95,4.27,1.68,4.7,11.26,3.68,29.94-.43,7.77-1.16,18.24-2.54,30.69,7.93,8.9,17.9,22.32,25.25,40.54,3.62,8.97,5.89,17.35,7.34,24.64Z"/>
</svg>